<svg width="280" height="90" viewBox="0 0 280 90" fill="none" xmlns="http://www.w3.org/2000/svg">
<g clip-path="url(#clip0_55_131)">
<path d="M131.905 47.6484C131.813 40.6326 131.168 33.6169 129.507 27.6164C128.677 24.6627 127.478 21.9858 126.095 20.6007C124.803 19.2163 123.789 18.5704 121.113 18.4779H120.192H119.085C118.346 18.4779 117.701 18.4779 117.24 18.5704C116.317 18.7546 115.949 18.8471 115.488 19.2163C115.026 19.4938 114.38 20.2315 113.827 21.2473C113.182 22.355 112.628 23.7393 112.259 25.1244C110.507 31.1243 109.861 38.3249 109.769 45.3406C109.676 52.3563 110.137 59.4645 111.89 65.465C112.813 68.4187 114.104 71.0964 115.579 72.5732C117.056 74.0501 118.255 74.5111 120.376 74.7885H120.745H121.206H121.575H121.944C122.313 74.7885 122.681 74.6967 122.958 74.6042C123.604 74.4193 124.157 74.0501 124.803 73.4966C126.186 72.204 127.662 69.8038 128.677 67.0344C130.799 61.3105 131.721 54.4798 131.905 47.5566V47.6484ZM143.434 59.1878C143.158 63.1573 142.604 67.1261 141.313 71.1889C140.114 75.2502 138.361 79.5889 134.488 83.466C132.643 85.3127 130.06 86.9738 127.201 87.8972C125.817 88.2664 124.342 88.5432 122.866 88.6349C122.59 88.7274 122.22 88.7274 121.852 88.7274H121.298H120.929L120.007 88.6349L118.992 88.5432C116.502 88.3582 113.735 87.6198 111.337 86.2354C108.847 84.8504 106.725 83.0968 105.157 80.9733C102.021 76.8188 100.729 72.389 99.9916 68.3263C99.1614 64.2649 98.8849 60.3879 98.7008 56.5101C98.6084 52.7255 98.6084 48.9409 98.6084 45.2481C98.7008 41.4635 98.7008 37.7714 98.8849 33.9869C99.069 30.1091 99.4386 26.232 100.268 22.1707C100.729 20.139 101.283 18.0162 102.297 15.8003C103.22 13.5857 104.696 11.1855 107.001 9.15446C109.308 7.12276 112.443 5.83087 115.026 5.46166C116.317 5.18423 117.516 5.09175 118.624 5.09175L119.454 4.99997H120.283C120.837 4.99997 121.391 5.09175 122.036 5.09175C124.342 5.2774 126.924 5.73839 129.6 6.84603C132.089 8.04613 134.488 9.89219 136.148 11.9232C139.561 16.0777 141.037 20.4157 141.959 24.386C143.803 32.5086 143.803 40.0792 143.803 47.6484C143.803 51.4329 143.803 55.31 143.434 59.1878Z" fill="#222222"/>
<path d="M154.438 65.465H167.536C167.536 66.9419 167.536 71.4656 175.191 71.4656C175.837 71.1888 178.974 68.0495 178.974 62.9723V9.61543H192.071V62.9723C192.071 74.3268 184.046 84.4818 175.191 84.4818C162.74 84.4818 154.438 76.9119 154.438 65.465Z" fill="#222222"/>
<path d="M237.848 47.6484C237.756 40.6326 237.11 33.6169 235.45 27.6164C234.62 24.6627 233.421 21.9858 232.038 20.6007C230.746 19.2163 229.732 18.5704 227.056 18.4779H226.134H225.028C224.289 18.4779 223.644 18.4779 223.183 18.5704C222.261 18.7546 221.892 18.8471 221.43 19.2163C220.969 19.4938 220.323 20.2315 219.77 21.2473C219.125 22.355 218.571 23.7393 218.202 25.1244C216.45 31.1243 215.804 38.3249 215.711 45.3406C215.619 52.3563 216.08 59.4645 217.833 65.465C218.756 68.4187 220.047 71.0964 221.522 72.5732C222.998 74.0501 224.198 74.5111 226.319 74.7885H226.687H227.149H227.518H227.887C228.256 74.7885 228.624 74.6967 228.901 74.6042C229.547 74.4193 230.101 74.0501 230.746 73.4966C232.129 72.204 233.605 69.8038 234.62 67.0344C236.742 61.3105 237.663 54.4798 237.848 47.5566V47.6484ZM249.377 59.1878C249.101 63.1573 248.548 67.1261 247.256 71.1889C246.057 75.2502 244.304 79.5889 240.431 83.466C238.586 85.3127 236.003 86.9738 233.144 87.8972C231.76 88.2664 230.285 88.5432 228.809 88.6349C228.533 88.7274 228.163 88.7274 227.795 88.7274H227.241H226.872L225.95 88.6349L224.935 88.5432C222.445 88.3582 219.678 87.6198 217.279 86.2354C214.789 84.8504 212.668 83.0968 211.1 80.9733C207.964 76.8188 206.672 72.389 205.934 68.3263C205.104 64.2649 204.828 60.3879 204.644 56.5101C204.551 52.7255 204.551 48.9409 204.551 45.2481C204.644 41.4635 204.644 37.7714 204.828 33.9869C205.012 30.1091 205.381 26.232 206.212 22.1707C206.672 20.139 207.226 18.0162 208.24 15.8003C209.163 13.5857 210.638 11.1855 212.944 9.15446C215.251 7.12276 218.386 5.83087 220.969 5.46166C222.261 5.18423 223.459 5.09175 224.566 5.09175L225.397 4.99997H226.226C226.78 4.99997 227.334 5.09175 227.979 5.09175C230.285 5.2774 232.867 5.73839 235.542 6.84603C238.032 8.04613 240.431 9.89219 242.091 11.9232C245.503 16.0777 246.98 20.4157 247.902 24.386C249.746 32.5086 249.746 40.0792 249.746 47.6484C249.746 51.4329 249.746 55.31 249.377 59.1878Z" fill="#222222"/>
<path d="M73.0548 106.525C73.0548 106.125 72.9909 105.761 72.8652 105.434C72.7373 105.107 72.5456 104.828 72.2879 104.597C72.0301 104.366 71.7057 104.189 71.3132 104.066C70.9213 103.943 70.4559 103.881 69.9174 103.881H68.43V109.41H70.0098C70.5017 109.41 70.9366 109.343 71.3132 109.208C71.6897 109.074 72.0072 108.88 72.2649 108.625C72.522 108.371 72.7186 108.068 72.8527 107.714C72.9874 107.36 73.0548 106.963 73.0548 106.525ZM76.0304 106.329C76.0304 107.114 75.8998 107.839 75.6385 108.505C75.3773 109.17 74.9883 109.745 74.4735 110.23C73.9587 110.715 73.3161 111.091 72.5477 111.361C71.7786 111.631 70.8866 111.765 69.8716 111.765H68.43V116.614H65.5698V101.527H69.9869C70.963 101.527 71.8266 101.632 72.5762 101.844C73.3265 102.055 73.9566 102.365 74.4672 102.773C74.9792 103.181 75.3669 103.683 75.633 104.279C75.8977 104.876 76.0304 105.559 76.0304 106.329Z" fill="#222222"/>
<path d="M88.9229 109.145C88.9229 107.36 88.6846 106.029 88.208 105.151C87.7307 104.274 86.9464 103.835 85.8549 103.835C85.3089 103.835 84.8441 103.948 84.4592 104.176C84.0744 104.403 83.7576 104.735 83.5082 105.174C83.2581 105.613 83.0753 106.153 82.96 106.796C82.8447 107.439 82.787 108.175 82.787 109.007C82.787 110.791 83.0274 112.123 83.5082 113C83.9882 113.878 84.7705 114.316 85.8549 114.316C86.401 114.316 86.8679 114.203 87.2562 113.976C87.6446 113.749 87.9614 113.416 88.208 112.978C88.4539 112.539 88.6346 111.999 88.7499 111.355C88.8652 110.713 88.9229 109.976 88.9229 109.145ZM91.9213 109.007C91.9213 110.376 91.7622 111.558 91.4433 112.55C91.1238 113.543 90.6854 114.358 90.1282 114.997C89.5711 115.636 88.9166 116.11 88.1677 116.417C87.4174 116.725 86.6164 116.879 85.7626 116.879C83.7791 116.879 82.2868 116.219 81.2878 114.899C80.2881 113.58 79.7886 111.661 79.7886 109.145C79.7886 107.775 79.9477 106.594 80.2665 105.601C80.5861 104.609 81.0245 103.793 81.5817 103.154C82.1388 102.515 82.7933 102.042 83.5422 101.734C84.2925 101.426 85.0935 101.273 85.9473 101.273C87.9308 101.273 89.4231 101.93 90.4221 103.247C91.4218 104.562 91.9213 106.483 91.9213 109.007Z" fill="#222222"/>
<path d="M103.614 116.614L99.0816 109.318V116.614H96.1978V101.527H99.0816V108.395L103.591 101.527H107.016L101.895 108.718L107.281 116.614H103.614Z" fill="#222222"/>
<path d="M69.8959 83.466L69.6194 45.1564L63.255 64.4492H53.3857L46.3758 43.6796L45.5456 85.9587L29.4043 85.6813L30.7882 9.61552L46.9295 9.89225V12.8466L58.2745 46.4483L69.3429 12.9391V11.3698L85.4835 11.2773L86.1296 83.3736L69.8959 83.466Z" fill="#222222"/>
<path d="M112.182 116.614V101.527H121.258V103.928H115.065V107.679H120.97V110.023H115.065V114.213H121.258V116.614H112.182Z" fill="#222222"/>
<path d="M133.793 105.97C133.793 105.232 133.558 104.701 133.089 104.378C132.621 104.054 131.917 103.893 130.978 103.893H129.733V108.152H130.886C131.324 108.152 131.723 108.106 132.08 108.013C132.438 107.922 132.743 107.782 132.997 107.598C133.251 107.413 133.447 107.185 133.585 106.912C133.723 106.638 133.793 106.324 133.793 105.97ZM134.497 116.614L132.374 111.765C132.174 111.304 131.895 110.955 131.538 110.721C131.18 110.486 130.76 110.368 130.275 110.368H129.733V116.614H126.896V101.526H131.29C132.121 101.526 132.874 101.598 133.55 101.74C134.227 101.882 134.804 102.119 135.281 102.45C135.757 102.78 136.124 103.211 136.383 103.743C136.64 104.274 136.768 104.924 136.768 105.694C136.768 106.247 136.688 106.74 136.527 107.171C136.365 107.602 136.138 107.974 135.846 108.284C135.553 108.597 135.206 108.849 134.802 109.041C134.399 109.233 133.958 109.368 133.482 109.445C133.85 109.521 134.189 109.731 134.497 110.074C134.804 110.417 135.111 110.911 135.419 111.557L137.83 116.614H134.497Z" fill="#222222"/>
<path d="M167.686 116.025C167.017 116.295 166.369 116.494 165.743 116.625C165.116 116.756 164.464 116.822 163.788 116.822C162.703 116.822 161.744 116.662 160.91 116.342C160.076 116.023 159.372 115.547 158.8 114.916C158.227 114.286 157.792 113.502 157.496 112.568C157.2 111.633 157.052 110.546 157.052 109.307C157.052 108.037 157.214 106.908 157.537 105.919C157.859 104.93 158.321 104.095 158.921 103.413C159.52 102.733 160.249 102.213 161.106 101.856C161.963 101.497 162.926 101.319 163.996 101.319C164.342 101.319 164.666 101.326 164.97 101.342C165.273 101.357 165.571 101.386 165.864 101.428C166.156 101.471 166.452 101.526 166.752 101.596C167.052 101.665 167.363 101.754 167.686 101.861V104.678C167.033 104.37 166.41 104.151 165.818 104.02C165.225 103.889 164.688 103.823 164.203 103.823C163.488 103.823 162.876 103.953 162.369 104.211C161.861 104.468 161.445 104.83 161.117 105.295C160.791 105.761 160.55 106.315 160.397 106.958C160.243 107.6 160.166 108.306 160.166 109.076C160.166 109.891 160.245 110.621 160.402 111.263C160.56 111.906 160.805 112.45 161.135 112.897C161.465 113.343 161.888 113.684 162.403 113.918C162.919 114.153 163.53 114.271 164.237 114.271C164.491 114.271 164.766 114.245 165.062 114.195C165.358 114.145 165.658 114.079 165.962 113.999C166.265 113.918 166.565 113.822 166.861 113.71C167.157 113.599 167.432 113.486 167.686 113.37V116.025Z" fill="#222222"/>
<path d="M173.727 116.614V101.527H176.61V114.178H182.976V116.614H173.727Z" fill="#222222"/>
<path d="M198.787 111.061C198.787 112.023 198.658 112.868 198.401 113.595C198.143 114.322 197.774 114.928 197.294 115.413C196.813 115.898 196.227 116.263 195.535 116.51C194.843 116.756 194.066 116.879 193.205 116.879C192.236 116.879 191.406 116.756 190.714 116.51C190.022 116.263 189.461 115.91 189.03 115.448C188.599 114.986 188.288 114.424 188.095 113.762C187.904 113.1 187.807 112.358 187.807 111.535V101.526H190.644V111.361C190.644 111.869 190.689 112.32 190.777 112.712C190.866 113.104 191.02 113.437 191.238 113.71C191.458 113.984 191.733 114.189 192.063 114.328C192.394 114.466 192.809 114.536 193.309 114.536C193.778 114.536 194.174 114.476 194.497 114.356C194.82 114.237 195.089 114.045 195.304 113.779C195.519 113.514 195.68 113.173 195.789 112.758C195.897 112.343 195.95 111.838 195.95 111.246V101.526H198.787V111.061Z" fill="#222222"/>
<path d="M208.438 114.293C208.892 114.293 209.29 114.236 209.631 114.12C209.974 114.005 210.26 113.845 210.491 113.641C210.722 113.437 210.897 113.197 211.015 112.919C211.135 112.643 211.195 112.346 211.195 112.031C211.195 111.377 210.95 110.865 210.462 110.495C209.974 110.126 209.226 109.941 208.219 109.941H206.454V114.293H208.438ZM210.699 105.647C210.699 105.363 210.653 105.105 210.56 104.874C210.468 104.643 210.32 104.447 210.116 104.285C209.912 104.124 209.651 103.998 209.331 103.91C209.012 103.821 208.626 103.777 208.173 103.777H206.454V107.771H208.173C208.634 107.771 209.024 107.716 209.344 107.604C209.663 107.492 209.924 107.338 210.128 107.143C210.332 106.946 210.478 106.721 210.566 106.467C210.654 106.213 210.699 105.94 210.699 105.647ZM203.64 116.614V101.527H208.507C210.221 101.527 211.508 101.826 212.365 102.427C213.223 103.027 213.651 103.935 213.651 105.151C213.651 105.528 213.607 105.896 213.518 106.253C213.43 106.611 213.293 106.94 213.109 107.24C212.924 107.54 212.694 107.806 212.417 108.037C212.14 108.268 211.813 108.448 211.436 108.579C211.813 108.641 212.173 108.762 212.515 108.944C212.857 109.124 213.157 109.359 213.414 109.646C213.672 109.936 213.876 110.276 214.026 110.669C214.176 111.061 214.251 111.5 214.251 111.985C214.251 113.524 213.736 114.68 212.706 115.454C211.675 116.226 210.187 116.614 208.242 116.614H203.64Z" fill="#222222"/>
<path d="M0 47.7872C2.32804 47.1649 4.92702 42.3659 10.0124 44.8516C9.13986 43.096 9.28644 41.0921 11.181 39.4887C13.5875 37.4514 15.8447 39.4052 15.8454 41.3716C15.8454 43.2746 13.9078 44.2286 13.0366 43.8976C17.9858 49.9357 22.7301 43.1829 22.2668 37.1197C22.4481 37.1858 22.628 37.2546 22.8163 37.2943C24.0717 40.7833 24.2064 44.716 21.8444 47.0808C21.5762 47.3485 21.3018 47.5828 21.0218 47.7872C21.3018 47.9916 21.5762 48.226 21.8444 48.4937C24.2064 50.8584 24.0717 54.7911 22.8163 58.2802C22.628 58.3205 22.4481 58.3887 22.2668 58.4547C22.7301 52.3916 17.9858 45.6387 13.0366 51.6775C13.9078 51.3458 15.8454 52.3005 15.8454 54.2029C15.8447 56.1699 13.5875 58.1224 11.181 56.0858C9.28644 54.4824 9.13986 52.4785 10.0124 50.7228C4.92702 53.2086 2.32804 48.4102 0 47.7872Z" fill="#222222"/>
<path d="M280.216 47.7872C277.888 47.1649 275.288 42.3659 270.203 44.8516C271.076 43.096 270.93 41.0921 269.034 39.4887C266.628 37.4514 264.37 39.4052 264.37 41.3716C264.37 43.2746 266.308 44.2286 267.179 43.8976C262.23 49.9357 257.486 43.1829 257.948 37.1197C257.768 37.1858 257.587 37.2546 257.399 37.2943C256.144 40.7833 256.009 44.716 258.371 47.0808C258.639 47.3485 258.914 47.5828 259.194 47.7872C258.914 47.9916 258.639 48.226 258.371 48.4937C256.009 50.8584 256.144 54.7911 257.399 58.2802C257.587 58.3205 257.768 58.3887 257.948 58.4547C257.486 52.3916 262.23 45.6387 267.179 51.6775C266.308 51.3458 264.37 52.3005 264.37 54.2029C264.37 56.1699 266.628 58.1224 269.034 56.0858C270.93 54.4824 271.076 52.4785 270.203 50.7228C275.288 53.2086 277.888 48.4102 280.216 47.7872Z" fill="#222222"/>
<path d="M56.2742 111.305C56.211 111.308 29.6987 108.997 29.6987 108.997L56.0811 106.689L56.2742 111.305Z" fill="#222222"/>
<path d="M222.942 110.231C223.006 110.234 249.518 107.924 249.518 107.924L223.136 105.616L222.942 110.231Z" fill="#222222"/>
</g>
<defs>
<clipPath id="clip0_55_131">
<rect width="280" height="122" fill="white"/>
</clipPath>
</defs>
</svg>
